<?xml version="1.0" standalone="no"?>
<!DOCTYPE svg PUBLIC "-//W3C//DTD SVG 20010904//EN"
 "http://www.w3.org/TR/2001/REC-SVG-20010904/DTD/svg10.dtd">
<svg version="1.0" xmlns="http://www.w3.org/2000/svg"
 width="67.000000pt" height="67.000000pt" viewBox="0 0 67.000000 67.000000"
 preserveAspectRatio="xMidYMid meet">
<metadata>
Created by potrace 1.10, written by Peter Selinger 2001-2011
</metadata>
<g transform="translate(0.000000,67.000000) scale(0.100000,-0.100000)"
fill="#000000" stroke="none">
<path d="M36 634 l-26 -27 0 -272 0 -272 26 -27 27 -26 272 0 272 0 27 26 26
27 0 272 0 272 -26 27 -27 26 -272 0 -272 0 -27 -26z m579 -19 l25 -24 0 -256
0 -256 -25 -24 -24 -25 -256 0 -256 0 -24 25 -25 24 0 256 0 256 25 24 24 25
256 0 256 0 24 -25z"/>
<path d="M287 559 c-215 -50 -247 -342 -47 -432 86 -38 200 -17 262 49 105
113 67 311 -72 367 -50 21 -100 26 -143 16z m121 -35 c140 -58 174 -234 66
-336 -104 -97 -264 -64 -325 67 -74 159 97 337 259 269z"/>
<path d="M320 440 c0 -13 7 -20 20 -20 20 0 21 -5 18 -82 l-3 -83 -45 -5 c-34
-4 -45 -9 -46 -22 -2 -15 7 -18 45 -18 78 0 85 11 91 139 l5 111 -42 0 c-36 0
-43 -3 -43 -20z"/>
</g>
</svg>
